<svg width="177" height="34" viewBox="0 0 177 34" fill="none" xmlns="http://www.w3.org/2000/svg">
<path d="M11.4319 28.16C11.4319 28.48 11.2852 28.4267 10.9919 28C10.7252 27.6 10.4585 26.84 10.1919 25.72C10.1385 25.48 10.0985 25.2267 10.0719 24.96C10.0452 24.6667 10.0319 24.3733 10.0319 24.08C10.0319 22.9067 10.1785 21.56 10.4719 20.04C10.7652 18.4933 11.1252 16.8933 11.5519 15.24C12.0052 13.56 12.4452 11.9333 12.8719 10.36C13.2985 8.78667 13.6585 7.38667 13.9519 6.16C14.2452 4.90667 14.3919 3.96 14.3919 3.32C14.3919 3 14.3652 2.78667 14.3119 2.68C14.2585 2.57333 14.2319 2.48 14.2319 2.4C14.2319 2.13333 14.4452 2 14.8719 2C15.3252 2 15.8852 2.17333 16.5519 2.52C17.2185 2.84 17.7919 3.32 18.2719 3.96C18.7519 4.6 18.9385 5.36 18.8319 6.24C18.8319 6.32 18.8185 6.4 18.7919 6.48C18.7919 6.56 18.7785 6.65333 18.7519 6.76C19.5785 7.64 20.3252 8.68 20.9919 9.88C21.6585 11.08 22.3519 12.3467 23.0719 13.68C23.8185 14.9867 24.6719 16.2933 25.6319 17.6C25.6319 17.6533 25.7785 17.8933 26.0719 18.32C26.3919 18.72 26.7919 19.2267 27.2719 19.84C27.7519 20.4267 28.2585 21.04 28.7919 21.68C29.3519 22.32 29.8452 22.9067 30.2719 23.44V23.04C30.3252 22.6133 30.4319 21.84 30.5919 20.72C30.7785 19.6 30.9919 18.2933 31.2319 16.8C31.4985 15.28 31.7785 13.72 32.0719 12.12C32.3652 10.52 32.6585 9.01333 32.9519 7.6C33.2452 6.16 33.5252 4.97333 33.7919 4.04C33.7919 4.04 33.9252 4.01333 34.1919 3.96C34.4585 3.90667 34.7252 3.88 34.9919 3.88C35.2852 3.88 35.5252 3.92 35.7119 4C35.9252 4.08 36.0319 4.25333 36.0319 4.52C36.0319 4.65333 36.0185 4.76 35.9919 4.84C35.8585 5.29333 35.6585 6.06667 35.3919 7.16C35.1252 8.25333 34.8185 9.54667 34.4719 11.04C34.1252 12.5333 33.7519 14.0933 33.3519 15.72C32.9785 17.3467 32.6052 18.9333 32.2319 20.48C31.8585 22.0267 31.5119 23.4 31.1919 24.6L31.4319 24.8C31.8852 25.1733 32.1919 25.5067 32.3519 25.8C32.5119 26.0667 32.5919 26.2667 32.5919 26.4C32.5919 26.5867 32.4585 26.68 32.1919 26.68C31.8452 26.68 31.3652 26.5467 30.7519 26.28C30.5919 26.84 30.4452 27.28 30.3119 27.6C30.1785 27.92 30.1252 28.08 30.1519 28.08C30.1252 28.1067 30.0719 28.12 29.9919 28.12C29.8052 28.12 29.7119 27.9067 29.7119 27.48C29.7119 27.2667 29.7385 27.0133 29.7919 26.72C29.8452 26.4267 29.8852 26.1067 29.9119 25.76C28.4719 24.8267 27.1252 23.7333 25.8719 22.48C24.6452 21.2 23.4452 19.8133 22.2719 18.32C21.4452 17.2533 20.7385 16.3733 20.1519 15.68C19.5919 14.96 19.0585 14.32 18.5519 13.76C18.0719 13.1733 17.5519 12.5467 16.9919 11.88C16.4319 13.1867 15.8185 14.56 15.1519 16C14.5119 17.44 13.8852 18.8533 13.2719 20.24C12.6852 21.6 12.2052 22.8667 11.8319 24.04C11.4585 25.1867 11.2719 26.1467 11.2719 26.92C11.2719 27.0533 11.2719 27.1733 11.2719 27.28C11.2985 27.4133 11.3252 27.5333 11.3519 27.64C11.3785 27.7467 11.3919 27.84 11.3919 27.92C11.4185 28.0267 11.4319 28.1067 11.4319 28.16ZM42.0909 27.92C41.0243 27.92 40.0243 27.72 39.0909 27.32C38.1576 26.9467 37.3976 26.3467 36.8109 25.52C36.3309 24.8267 35.9976 24.16 35.8109 23.52C35.6243 22.8533 35.5309 22.2267 35.5309 21.64C35.5309 21.08 35.5976 20.5733 35.7309 20.12C35.8643 19.64 36.0243 19.2533 36.2109 18.96C36.7709 18 37.3576 17.2 37.9709 16.56C38.6109 15.92 39.3043 15.3467 40.0509 14.84C41.0376 14.2 42.2509 13.88 43.6909 13.88C44.2243 13.88 44.7843 14.0933 45.3709 14.52C45.9576 14.9467 46.8109 15.3867 47.9309 15.84C48.6776 16.1333 49.3709 16.48 50.0109 16.88C50.6776 17.2533 51.2109 17.64 51.6109 18.04C52.0376 18.4133 52.2509 18.7733 52.2509 19.12C52.2509 19.4933 51.9443 19.8 51.3309 20.04C50.4509 20.3333 49.4109 20.6 48.2109 20.84C47.0109 21.0533 45.8109 21.2267 44.6109 21.36C43.4376 21.4933 42.3976 21.56 41.4909 21.56C40.7976 21.56 40.2643 21.52 39.8909 21.44C39.7309 22.0267 39.6509 22.64 39.6509 23.28C39.6509 23.8133 39.7309 24.3467 39.8909 24.88C40.0509 25.4133 40.3176 25.9067 40.6909 26.36C40.9576 26.6533 41.2509 26.8667 41.5709 27C41.9176 27.1067 42.2643 27.16 42.6109 27.16C43.1976 27.16 43.7709 27.0667 44.3309 26.88C44.9176 26.6667 45.4243 26.4533 45.8509 26.24C46.2776 26 46.5443 25.84 46.6509 25.76C47.1843 25.44 47.5843 25.2 47.8509 25.04C48.1443 24.88 48.4243 24.8 48.6909 24.8C49.1709 24.8 49.4109 24.9067 49.4109 25.12C49.4109 25.2533 49.2776 25.4533 49.0109 25.72C48.7443 25.96 48.2776 26.24 47.6109 26.56C46.7576 26.9867 45.8509 27.32 44.8909 27.56C43.9576 27.8 43.0243 27.92 42.0909 27.92ZM42.4109 20.24C43.2643 20.24 44.2643 20.2 45.4109 20.12C46.5576 20.0133 47.7976 19.84 49.1309 19.6C49.8776 19.44 50.2509 19.2133 50.2509 18.92C50.2509 18.68 50.0776 18.4267 49.7309 18.16C49.4109 17.8667 48.9976 17.6 48.4909 17.36C48.0109 17.12 47.5309 16.92 47.0509 16.76C46.5976 16.5733 46.2509 16.48 46.0109 16.48C44.8643 16.48 43.8776 16.72 43.0509 17.2C42.2509 17.68 41.5576 18.3067 40.9709 19.08C40.7843 19.32 40.5843 19.6667 40.3709 20.12C40.8243 20.2 41.5043 20.24 42.4109 20.24ZM50.7344 29.56C50.5477 29.56 50.4544 29.36 50.4544 28.96C50.4544 28.6933 50.5077 28.3733 50.6144 28C50.6944 27.6267 50.8544 27.1867 51.0944 26.68C51.3077 26.2267 52.0144 25.52 53.2144 24.56C54.4144 23.5733 55.8144 22.4933 57.4144 21.32C56.3744 19.8533 55.5477 18.56 54.9344 17.44C54.321 16.2933 53.961 15.64 53.8544 15.48C53.7477 15.2933 53.8277 15.08 54.0944 14.84C54.3877 14.5733 54.7477 14.32 55.1744 14.08C55.6277 13.84 56.0677 13.6533 56.4944 13.52C56.9477 13.36 57.281 13.3067 57.4944 13.36C57.601 13.36 57.8144 13.6133 58.1344 14.12C58.481 14.6 58.881 15.2533 59.3344 16.08C59.8144 16.88 60.3077 17.7467 60.8144 18.68C62.3344 17.5867 63.7077 16.56 64.9344 15.6C66.161 14.6133 67.0144 13.8133 67.4944 13.2C67.4944 13.2 67.561 13.1867 67.6944 13.16C67.8277 13.1333 67.961 13.12 68.0944 13.12C68.4944 13.12 68.7077 13.24 68.7344 13.48C68.7344 13.5333 68.5877 13.7067 68.2944 14C68.0277 14.2933 67.681 14.64 67.2544 15.04C66.8544 15.4133 66.4544 15.7733 66.0544 16.12C65.6544 16.4667 65.3477 16.72 65.1344 16.88C64.9477 16.9867 64.5077 17.28 63.8144 17.76C63.1477 18.24 62.3077 18.8267 61.2944 19.52C61.9077 20.5067 62.4944 21.4933 63.0544 22.48C63.641 23.4667 64.161 24.3333 64.6144 25.08C65.0677 25.8267 65.4277 26.36 65.6944 26.68C65.961 27.08 66.2544 27.48 66.5744 27.88C66.921 28.28 67.1744 28.6133 67.3344 28.88C67.521 29.1467 67.5077 29.28 67.2944 29.28C67.1877 29.28 66.9344 29.2133 66.5344 29.08C66.161 28.9467 65.6144 28.7067 64.8944 28.36C63.5877 27.72 62.3344 26.8267 61.1344 25.68C59.961 24.5333 58.8944 23.36 57.9344 22.16C56.9477 22.9067 55.9877 23.68 55.0544 24.48C54.1477 25.28 53.361 26.0533 52.6944 26.8C52.0277 27.5467 51.5744 28.2267 51.3344 28.84C51.1477 29.32 50.9477 29.56 50.7344 29.56ZM74.4259 28.04C74.2126 28.04 73.9459 27.9467 73.6259 27.76C73.3059 27.6 72.9326 27.2267 72.5059 26.64C72.1593 26.16 71.8926 25.4933 71.7059 24.64C71.5459 23.7867 71.4659 22.9333 71.4659 22.08C71.4659 20.96 71.5326 20.0267 71.6659 19.28C71.7993 18.5333 71.8926 18.0533 71.9459 17.84C71.5459 17.4667 71.2126 17.2 70.9459 17.04C70.6793 16.88 70.5459 16.6933 70.5459 16.48C70.5459 16.1067 70.7993 15.8133 71.3059 15.6C71.8393 15.36 72.4259 15.2133 73.0659 15.16C73.3059 14.6 73.5193 14 73.7059 13.36C73.8926 12.6933 74.0793 12.0667 74.2659 11.48C74.4526 10.8667 74.6526 10.3867 74.8659 10.04C75.2393 9.42667 75.8126 9.01333 76.5859 8.8C77.3859 8.58667 78.1459 8.48 78.8659 8.48C79.5859 8.48 80.1593 8.56 80.5859 8.72C81.0393 8.85333 81.1459 9.01333 80.9059 9.2C80.4793 9.49333 80.0126 10 79.5059 10.72C78.9993 11.4133 78.5059 12.1733 78.0259 13C77.5459 13.8267 77.1059 14.5867 76.7059 15.28H81.9859C82.9459 15.28 83.4259 15.36 83.4259 15.52C83.4259 15.7867 82.8393 15.9467 81.6659 16C80.1459 16.0267 79.0259 16.0667 78.3059 16.12C77.6126 16.1733 77.1193 16.2267 76.8259 16.28C76.4526 16.36 76.1726 16.48 75.9859 16.64C75.7993 16.8 75.6393 17.0667 75.5059 17.44C75.0526 18.5867 74.6793 19.7867 74.3859 21.04C74.1193 22.2667 73.9859 23.3867 73.9859 24.4C73.9859 25.1733 74.0659 25.84 74.2259 26.4C74.4126 26.9333 74.6793 27.2933 75.0259 27.48C75.1059 27.5067 75.1459 27.56 75.1459 27.64C75.1459 27.72 75.0793 27.8 74.9459 27.88C74.8126 27.9867 74.6393 28.04 74.4259 28.04Z" fill="white"/>
<path d="M85.1767 28.64C85.1767 28.12 85.1834 27.2933 85.1967 26.16C85.2101 25.0133 85.2234 23.68 85.2367 22.16C85.2634 20.6267 85.2834 19.02 85.2967 17.34C85.3234 15.6467 85.3501 13.9933 85.3767 12.38C85.4034 10.7533 85.4234 9.27333 85.4367 7.94C85.4634 6.59333 85.4834 5.50667 85.4967 4.68C85.5101 3.84 85.5167 3.38 85.5167 3.3C86.1034 3.24667 86.8167 3.18667 87.6567 3.12C88.4967 3.05333 89.4167 3 90.4167 2.96C91.4301 2.90666 92.4701 2.88 93.5367 2.88C94.9767 2.88 96.2634 3.08666 97.3967 3.5C98.5301 3.9 99.4234 4.54 100.077 5.42C100.73 6.3 101.057 7.45333 101.057 8.88C101.057 9.86667 100.837 10.8133 100.397 11.72C99.9567 12.6133 99.3967 13.3733 98.7167 14C98.0501 14.6133 97.3567 15 96.6367 15.16C96.7034 15.1467 96.7701 15.14 96.8367 15.14C96.9167 15.14 97.0034 15.1467 97.0967 15.16C98.2434 15.1867 99.2901 15.44 100.237 15.92C101.183 16.4 101.93 17.06 102.477 17.9C103.037 18.74 103.317 19.72 103.317 20.84C103.317 22.5467 102.957 23.9267 102.237 24.98C101.517 26.0333 100.51 26.8467 99.2167 27.42C97.9367 27.9933 96.4501 28.3933 94.7567 28.62C93.0634 28.8333 91.2434 28.94 89.2967 28.94C88.5367 28.94 87.7967 28.92 87.0767 28.88C86.3701 28.8267 85.7367 28.7467 85.1767 28.64ZM89.3567 25.2C89.4501 25.2 89.5767 25.2 89.7367 25.2C89.8967 25.2 90.0834 25.2 90.2967 25.2C91.4834 25.2 92.6234 25.1467 93.7167 25.04C94.8234 24.92 95.8167 24.7067 96.6967 24.4C97.5901 24.08 98.2967 23.6267 98.8167 23.04C99.3367 22.4533 99.5967 21.68 99.5967 20.72C99.5967 20.0267 99.4301 19.4533 99.0967 19C98.7767 18.5333 98.3234 18.1667 97.7367 17.9C97.1501 17.6333 96.4701 17.4467 95.6967 17.34C94.9367 17.22 94.1101 17.16 93.2167 17.16C92.9901 17.16 92.6301 17.1667 92.1367 17.18C91.6434 17.18 91.1301 17.1933 90.5967 17.22C90.0767 17.2333 89.6701 17.26 89.3767 17.3L89.3567 25.2ZM89.3167 14.08C90.7834 14.0533 91.9167 14 92.7167 13.92C93.5301 13.8267 94.1967 13.64 94.7167 13.36C95.4901 13.0667 96.1567 12.56 96.7167 11.84C97.2767 11.1067 97.5567 10.2867 97.5567 9.38C97.5567 8.06 97.1634 7.14 96.3767 6.62C95.5901 6.08667 94.5367 5.82 93.2167 5.82C92.4834 5.82 91.7434 5.86 90.9967 5.94C90.2634 6.02 89.6834 6.08667 89.2567 6.14L89.3167 14.08ZM108.046 28.74C108.1 28.0067 108.14 27 108.166 25.72C108.193 24.44 108.213 23.0067 108.226 21.42C108.253 19.82 108.266 18.1667 108.266 16.46C108.266 14.74 108.253 13.0467 108.226 11.38C108.213 9.71333 108.193 8.17333 108.166 6.76C108.14 5.33333 108.1 4.14666 108.046 3.2C108.273 3.17333 108.62 3.14 109.086 3.1C109.566 3.06 110.046 3.04 110.526 3.04C110.846 3.04 111.193 3.05333 111.566 3.08C111.953 3.10667 112.22 3.13333 112.366 3.16C112.406 4.10667 112.44 5.24667 112.466 6.58C112.493 7.9 112.506 9.32667 112.506 10.86C112.52 12.38 112.513 13.9267 112.486 15.5C112.46 17.0733 112.433 18.5867 112.406 20.04C112.393 21.04 112.373 21.9533 112.346 22.78C112.32 23.5933 112.286 24.2467 112.246 24.74C113.166 24.6867 114.206 24.6333 115.366 24.58C116.54 24.5267 117.746 24.48 118.986 24.44C120.226 24.4 121.426 24.38 122.586 24.38C122.6 24.6333 122.613 24.9933 122.626 25.46C122.64 25.9267 122.646 26.4133 122.646 26.92C122.646 27.4267 122.64 27.8733 122.626 28.26C121.133 28.4067 119.7 28.5267 118.326 28.62C116.966 28.7 115.673 28.7533 114.446 28.78C113.313 28.82 112.213 28.8333 111.146 28.82C110.093 28.8067 109.06 28.78 108.046 28.74ZM137.465 30.02C134.892 30.02 132.778 29.42 131.125 28.22C129.485 27.02 128.272 25.4 127.485 23.36C126.698 21.32 126.305 19.0467 126.305 16.54C126.305 13.8067 126.718 11.3933 127.545 9.3C128.385 7.20667 129.632 5.56667 131.285 4.38C132.938 3.19333 134.998 2.6 137.465 2.6C139.492 2.6 141.212 2.98 142.625 3.74C144.052 4.48667 145.205 5.52 146.085 6.84C146.978 8.14667 147.625 9.64667 148.025 11.34C148.438 13.02 148.645 14.7867 148.645 16.64C148.645 18.44 148.425 20.1467 147.985 21.76C147.558 23.3733 146.892 24.8 145.985 26.04C145.078 27.2667 143.918 28.24 142.505 28.96C141.092 29.6667 139.412 30.02 137.465 30.02ZM137.405 26.04C139.178 26.04 140.618 25.6 141.725 24.72C142.832 23.8267 143.638 22.6533 144.145 21.2C144.665 19.7467 144.925 18.1667 144.925 16.46C144.925 15.1533 144.805 13.88 144.565 12.64C144.338 11.4 143.945 10.2867 143.385 9.3C142.838 8.3 142.105 7.50667 141.185 6.92C140.265 6.33333 139.112 6.04 137.725 6.04C136.018 6.04 134.618 6.50667 133.525 7.44C132.445 8.36 131.652 9.62 131.145 11.22C130.638 12.8067 130.385 14.6 130.385 16.6C130.385 18.32 130.632 19.9 131.125 21.34C131.632 22.7667 132.405 23.9067 133.445 24.76C134.485 25.6133 135.805 26.04 137.405 26.04ZM165.395 29.96C162.649 29.96 160.349 29.4067 158.495 28.3C156.642 27.1933 155.242 25.6067 154.295 23.54C153.349 21.46 152.875 18.9733 152.875 16.08C152.875 13.3733 153.309 10.98 154.175 8.9C155.055 6.82 156.335 5.19333 158.015 4.02C159.709 2.83333 161.775 2.24 164.215 2.24C165.749 2.24 167.109 2.46667 168.295 2.92C169.482 3.36 170.489 3.92667 171.315 4.62C172.155 5.31333 172.802 6.02667 173.255 6.76C173.109 6.96 172.862 7.23333 172.515 7.58C172.169 7.91333 171.789 8.25333 171.375 8.6C170.975 8.94667 170.589 9.23333 170.215 9.46C169.669 8.60667 169.095 7.94 168.495 7.46C167.909 6.96667 167.255 6.62 166.535 6.42C165.815 6.22 164.989 6.12 164.055 6.12C163.229 6.12 162.395 6.32 161.555 6.72C160.729 7.12 159.969 7.72667 159.275 8.54C158.582 9.35333 158.022 10.38 157.595 11.62C157.182 12.86 156.975 14.3133 156.975 15.98C156.975 18.1133 157.275 19.9533 157.875 21.5C158.489 23.0333 159.415 24.22 160.655 25.06C161.909 25.8867 163.495 26.3 165.415 26.3C166.855 26.3 168.002 26 168.855 25.4C169.709 24.8 170.315 24.0133 170.675 23.04C171.049 22.0667 171.235 21.02 171.235 19.9C171.235 19.66 171.229 19.42 171.215 19.18C171.215 18.9267 171.202 18.6933 171.175 18.48C170.882 18.4133 170.382 18.3333 169.675 18.24C168.982 18.1333 168.202 18.0267 167.335 17.92C166.482 17.8133 165.655 17.72 164.855 17.64C164.055 17.5467 163.402 17.4933 162.895 17.48C162.882 17.2267 162.875 16.9133 162.875 16.54C162.875 16.1533 162.882 15.76 162.895 15.36C162.909 14.96 162.922 14.64 162.935 14.4C163.935 14.44 165.149 14.5267 166.575 14.66C168.002 14.7933 169.442 14.96 170.895 15.16C172.362 15.36 173.649 15.5867 174.755 15.84C174.849 16.3867 174.915 16.9667 174.955 17.58C175.009 18.18 175.035 18.7533 175.035 19.3C175.035 21.34 174.695 23.1667 174.015 24.78C173.349 26.3933 172.309 27.66 170.895 28.58C169.482 29.5 167.649 29.96 165.395 29.96Z" fill="white"/>
</svg>
